<svg xmlns="http://www.w3.org/2000/svg" xmlns:xlink="http://www.w3.org/1999/xlink" width="500" zoomAndPan="magnify" viewBox="0 0 375 374.999991" height="500" preserveAspectRatio="xMidYMid meet" version="1.0"><defs><g/><clipPath id="id1"><path d="M 196.140625 170.4375 L 223.140625 170.4375 L 223.140625 197.4375 L 196.140625 197.4375 Z M 196.140625 170.4375 " clip-rule="nonzero"/></clipPath></defs><rect x="-37.5" width="450" fill="#ffffff" y="-37.499999" height="449.999989" fill-opacity="1"/><rect x="-37.5" width="450" fill="#ffffff" y="-37.499999" height="449.999989" fill-opacity="1"/><rect x="-37.5" width="450" fill="#ffffff" y="-37.499999" height="449.999989" fill-opacity="1"/><rect x="-37.5" width="450" fill="#ffffff" y="-37.499999" height="449.999989" fill-opacity="1"/><g fill="#000000" fill-opacity="1"><g transform="translate(123.355895, 200.144812)"><g><path d="M 0 0 L 0 -2.375 L 1.1875 -1.1875 L 5.9375 -1.1875 C 6.257812 -1.1875 6.53125 -1.296875 6.75 -1.515625 C 7 -1.742188 7.125 -2.03125 7.125 -2.375 L 7.125 -10.6875 C 7.125 -11.007812 7 -11.28125 6.75 -11.5 C 6.53125 -11.75 6.257812 -11.875 5.9375 -11.875 L 2.375 -11.875 C 1.707031 -11.875 1.140625 -12.097656 0.671875 -12.546875 C 0.222656 -13.015625 0 -13.582031 0 -14.25 L 0 -30.875 C 0 -31.519531 0.222656 -32.078125 0.671875 -32.546875 C 1.140625 -33.015625 1.707031 -33.25 2.375 -33.25 L 9.5 -33.25 L 9.5 -30.875 L 8.3125 -32.0625 L 3.5625 -32.0625 C 3.21875 -32.0625 2.929688 -31.9375 2.703125 -31.6875 C 2.484375 -31.46875 2.375 -31.195312 2.375 -30.875 L 2.375 -14.25 C 2.375 -13.90625 2.484375 -13.617188 2.703125 -13.390625 C 2.929688 -13.171875 3.21875 -13.0625 3.5625 -13.0625 L 7.125 -13.0625 C 7.769531 -13.0625 8.328125 -12.828125 8.796875 -12.359375 C 9.265625 -11.890625 9.5 -11.332031 9.5 -10.6875 L 9.5 -2.375 C 9.5 -1.707031 9.265625 -1.140625 8.796875 -0.671875 C 8.328125 -0.222656 7.769531 0 7.125 0 Z M 0 0 "/></g></g></g><g fill="#000000" fill-opacity="1"><g transform="translate(137.839675, 200.144812)"><g><path d="M -1.1875 0 L 0 -1.1875 L 0 -32.0625 L -1.1875 -33.25 L 8.3125 -33.25 L 8.3125 -30.875 L 7.125 -32.0625 L 2.375 -32.0625 L 2.375 -14.25 L 5.9375 -14.25 L 5.9375 -13.0625 L 2.375 -13.0625 L 2.375 -1.1875 L 7.125 -1.1875 L 8.3125 -2.375 L 8.3125 0 Z M -1.1875 0 "/></g></g></g><g fill="#000000" fill-opacity="1"><g transform="translate(151.1362, 200.144812)"><g><path d="M 7.125 -13.0625 L 7.125 -30.875 C 7.125 -31.195312 7 -31.46875 6.75 -31.6875 C 6.53125 -31.9375 6.257812 -32.0625 5.9375 -32.0625 L 3.5625 -32.0625 C 3.21875 -32.0625 2.929688 -31.9375 2.703125 -31.6875 C 2.484375 -31.46875 2.375 -31.195312 2.375 -30.875 L 2.375 -13.0625 Z M -1.1875 0 L 0 -1.1875 L 0 -30.875 C 0 -31.519531 0.222656 -32.078125 0.671875 -32.546875 C 1.140625 -33.015625 1.707031 -33.25 2.375 -33.25 L 7.125 -33.25 C 7.769531 -33.25 8.328125 -33.015625 8.796875 -32.546875 C 9.265625 -32.078125 9.5 -31.519531 9.5 -30.875 L 9.5 -1.1875 L 10.6875 0 L 7.125 0 L 7.125 -11.875 L 2.375 -11.875 L 2.375 0 Z M -1.1875 0 "/></g></g></g><g fill="#000000" fill-opacity="1"><g transform="translate(166.807237, 200.144812)"><g><path d="M -1.1875 0 L 0 -1.1875 L 0 -32.0625 L -1.1875 -33.25 L 5.9375 -33.25 C 6.582031 -33.25 7.140625 -33.015625 7.609375 -32.546875 C 8.078125 -32.078125 8.3125 -31.519531 8.3125 -30.875 L 8.3125 -2.375 C 8.3125 -2.03125 8.421875 -1.742188 8.640625 -1.515625 C 8.867188 -1.296875 9.15625 -1.1875 9.5 -1.1875 L 11.875 -1.1875 L 11.875 -33.25 L 15.4375 -33.25 L 14.25 -32.0625 L 14.25 -1.1875 L 15.4375 0 L 8.3125 0 C 7.644531 0 7.078125 -0.222656 6.609375 -0.671875 C 6.160156 -1.140625 5.9375 -1.707031 5.9375 -2.375 L 5.9375 -30.875 C 5.9375 -31.195312 5.8125 -31.46875 5.5625 -31.6875 C 5.34375 -31.9375 5.070312 -32.0625 4.75 -32.0625 L 2.375 -32.0625 L 2.375 0 Z M -1.1875 0 "/></g></g></g><g fill="#000000" fill-opacity="1"><g transform="translate(187.223078, 200.144812)"><g/></g></g><g fill="#000000" fill-opacity="1"><g transform="translate(196.957835, 200.144812)"><g/></g></g><g fill="#000000" fill-opacity="1"><g transform="translate(206.692593, 200.144812)"><g/></g></g><g fill="#000000" fill-opacity="1"><g transform="translate(216.427351, 200.144812)"><g/></g></g><g fill="#000000" fill-opacity="1"><g transform="translate(226.162107, 200.144812)"><g/></g></g><g fill="#000000" fill-opacity="1"><g transform="translate(235.891044, 200.144812)"><g><path d="M 2.375 -0.296875 L 2.34375 -0.296875 C 2.34375 -0.296875 2.351562 -0.296875 2.375 -0.296875 Z M 2.375 0 C 1.707031 0 1.140625 -0.222656 0.671875 -0.671875 C 0.222656 -1.140625 0 -1.707031 0 -2.375 L 0 -30.875 C 0 -31.519531 0.222656 -32.078125 0.671875 -32.546875 C 1.140625 -33.015625 1.707031 -33.25 2.375 -33.25 L 9.5 -33.25 L 9.5 -30.875 L 8.3125 -32.0625 L 3.5625 -32.0625 C 3.21875 -32.0625 2.929688 -31.9375 2.703125 -31.6875 C 2.484375 -31.46875 2.375 -31.195312 2.375 -30.875 L 2.375 -2.375 C 2.375 -2.03125 2.484375 -1.742188 2.703125 -1.515625 C 2.929688 -1.296875 3.21875 -1.1875 3.5625 -1.1875 L 5.9375 -1.1875 C 6.257812 -1.1875 6.53125 -1.296875 6.75 -1.515625 C 7 -1.742188 7.125 -2.03125 7.125 -2.375 L 7.125 -13.0625 L 5.9375 -14.25 L 9.5 -14.25 L 9.5 0 Z M 2.375 0 "/></g></g></g><g fill="#000000" fill-opacity="1"><g transform="translate(250.374824, 200.144812)"><g><path d="M 2.375 -15.109375 C 2.71875 -15.328125 3.113281 -15.4375 3.5625 -15.4375 L 5.9375 -15.4375 C 6.257812 -15.4375 6.53125 -15.546875 6.75 -15.765625 C 7 -15.992188 7.125 -16.28125 7.125 -16.625 L 7.125 -30.875 C 7.125 -31.195312 7 -31.46875 6.75 -31.6875 C 6.53125 -31.9375 6.257812 -32.0625 5.9375 -32.0625 L 2.375 -32.0625 Z M -1.1875 0 L 0 -1.1875 L 0 -32.0625 L -1.1875 -33.25 L 7.125 -33.25 C 7.769531 -33.25 8.328125 -33.015625 8.796875 -32.546875 C 9.265625 -32.078125 9.5 -31.519531 9.5 -30.875 L 9.5 -16.625 C 9.5 -15.957031 9.265625 -15.390625 8.796875 -14.921875 C 8.328125 -14.472656 7.769531 -14.25 7.125 -14.25 L 3.5625 -14.25 C 3.21875 -14.25 2.929688 -14.125 2.703125 -13.875 C 2.484375 -13.65625 2.375 -13.382812 2.375 -13.0625 L 2.375 -12.734375 C 2.71875 -12.953125 3.113281 -13.0625 3.5625 -13.0625 L 7.125 -13.0625 C 7.769531 -13.0625 8.328125 -12.828125 8.796875 -12.359375 C 9.265625 -11.890625 9.5 -11.332031 9.5 -10.6875 L 9.5 -1.1875 L 10.6875 0 L 7.125 0 L 7.125 -10.6875 C 7.125 -11.007812 7 -11.28125 6.75 -11.5 C 6.53125 -11.75 6.257812 -11.875 5.9375 -11.875 L 3.5625 -11.875 C 3.21875 -11.875 2.929688 -11.75 2.703125 -11.5 C 2.484375 -11.28125 2.375 -11.007812 2.375 -10.6875 L 2.375 0 Z M -1.1875 0 "/></g></g></g><g fill="#000000" fill-opacity="1"><g transform="translate(266.04586, 200.144812)"><g><path d="M -1.1875 0 L 0 -1.1875 L 0 -32.0625 L -1.1875 -33.25 L 8.3125 -33.25 L 8.3125 -30.875 L 7.125 -32.0625 L 2.375 -32.0625 L 2.375 -14.25 L 5.9375 -14.25 L 5.9375 -13.0625 L 2.375 -13.0625 L 2.375 -1.1875 L 7.125 -1.1875 L 8.3125 -2.375 L 8.3125 0 Z M -1.1875 0 "/></g></g></g><g fill="#000000" fill-opacity="1"><g transform="translate(279.342386, 200.144812)"><g><path d="M -1.1875 0 L 0 -1.1875 L 0 -32.0625 L -1.1875 -33.25 L 8.3125 -33.25 L 8.3125 -30.875 L 7.125 -32.0625 L 2.375 -32.0625 L 2.375 -14.25 L 5.9375 -14.25 L 5.9375 -13.0625 L 2.375 -13.0625 L 2.375 -1.1875 L 7.125 -1.1875 L 8.3125 -2.375 L 8.3125 0 Z M -1.1875 0 "/></g></g></g><g fill="#000000" fill-opacity="1"><g transform="translate(292.638909, 200.144812)"><g><path d="M -1.1875 0 L 0 -1.1875 L 0 -32.0625 L -1.1875 -33.25 L 5.9375 -33.25 C 6.582031 -33.25 7.140625 -33.015625 7.609375 -32.546875 C 8.078125 -32.078125 8.3125 -31.519531 8.3125 -30.875 L 8.3125 -2.375 C 8.3125 -2.03125 8.421875 -1.742188 8.640625 -1.515625 C 8.867188 -1.296875 9.15625 -1.1875 9.5 -1.1875 L 11.875 -1.1875 L 11.875 -33.25 L 15.4375 -33.25 L 14.25 -32.0625 L 14.25 -1.1875 L 15.4375 0 L 8.3125 0 C 7.644531 0 7.078125 -0.222656 6.609375 -0.671875 C 6.160156 -1.140625 5.9375 -1.707031 5.9375 -2.375 L 5.9375 -30.875 C 5.9375 -31.195312 5.8125 -31.46875 5.5625 -31.6875 C 5.34375 -31.9375 5.070312 -32.0625 4.75 -32.0625 L 2.375 -32.0625 L 2.375 0 Z M -1.1875 0 "/></g></g></g><g fill="#000000" fill-opacity="1"><g transform="translate(313.058968, 200.144812)"><g><path d="M -1.1875 0 L 0 -1.1875 L 0 -32.0625 L -1.1875 -33.25 L 8.3125 -33.25 L 8.3125 -30.875 L 7.125 -32.0625 L 2.375 -32.0625 L 2.375 -14.25 L 5.9375 -14.25 L 5.9375 -13.0625 L 2.375 -13.0625 L 2.375 -1.1875 L 7.125 -1.1875 L 8.3125 -2.375 L 8.3125 0 Z M -1.1875 0 "/></g></g></g><g clip-path="url(#id1)"><path fill="#737373" d="M 216.390625 170.4375 L 216.390625 193.640625 L 196.140625 190.621094 L 216.390625 197.4375 L 223.140625 194.628906 L 223.140625 173.242188 Z M 209.300781 174.386719 L 203.101562 180.519531 L 199.367188 177.707031 L 197.828125 178.222656 L 201.625 181.976562 L 197.828125 185.730469 L 199.367188 186.246094 L 203.101562 183.429688 L 209.300781 189.5625 L 213.015625 187.988281 L 213.015625 175.964844 Z M 209.300781 178.761719 L 209.300781 185.203125 L 205.039062 181.976562 Z M 209.300781 178.761719 " fill-opacity="1" fill-rule="nonzero"/></g><g fill="#a6a6a6" fill-opacity="1"><g transform="translate(98.68945, 217.179874)"><g><path d="M 9.78125 -24.390625 L 9.78125 -5.4375 C 9.78125 -1.613281 10.769531 1.171875 12.75 2.921875 C 14.726562 4.671875 17.234375 5.546875 20.265625 5.546875 C 22.410156 5.546875 23.96875 5.507812 24.9375 5.4375 C 25.914062 5.375 26.40625 5.109375 26.40625 4.640625 C 26.40625 4.234375 26.066406 3.992188 25.390625 3.921875 C 24.722656 3.859375 23.71875 3.828125 22.375 3.828125 C 21.363281 3.828125 20.4375 3.675781 19.59375 3.375 C 18.757812 3.070312 18.003906 2.535156 17.328125 1.765625 C 16.660156 0.992188 16.140625 -0.0625 15.765625 -1.40625 C 15.398438 -2.75 15.21875 -4.460938 15.21875 -6.546875 L 15.21875 -24.6875 C 15.21875 -26.101562 14.945312 -27.25 14.40625 -28.125 C 13.875 -29 13.203125 -29.6875 12.390625 -30.1875 C 11.585938 -30.6875 10.664062 -31.054688 9.625 -31.296875 C 8.582031 -31.535156 7.554688 -31.753906 6.546875 -31.953125 C 7.554688 -32.148438 8.582031 -32.347656 9.625 -32.546875 C 10.664062 -32.753906 11.585938 -33.109375 12.390625 -33.609375 C 13.203125 -34.117188 13.875 -34.8125 14.40625 -35.6875 C 14.945312 -36.5625 15.21875 -37.769531 15.21875 -39.3125 L 15.21875 -59.46875 C 15.21875 -61.488281 15.398438 -63.171875 15.765625 -64.515625 C 16.140625 -65.859375 16.660156 -66.914062 17.328125 -67.6875 C 18.003906 -68.457031 18.757812 -68.992188 19.59375 -69.296875 C 20.4375 -69.597656 21.363281 -69.75 22.375 -69.75 C 23.71875 -69.75 24.722656 -69.78125 25.390625 -69.84375 C 26.066406 -69.914062 26.40625 -70.15625 26.40625 -70.5625 C 26.40625 -71.03125 25.914062 -71.296875 24.9375 -71.359375 C 23.96875 -71.429688 22.410156 -71.46875 20.265625 -71.46875 C 17.234375 -71.46875 14.726562 -70.609375 12.75 -68.890625 C 10.769531 -67.179688 9.78125 -64.410156 9.78125 -60.578125 L 9.78125 -39.515625 C 9.78125 -38.171875 9.507812 -37.0625 8.96875 -36.1875 C 8.4375 -35.3125 7.78125 -34.585938 7 -34.015625 C 6.226562 -33.441406 5.375 -32.988281 4.4375 -32.65625 C 3.5 -32.320312 2.625 -32.085938 1.8125 -31.953125 C 2.625 -31.816406 3.5 -31.613281 4.4375 -31.34375 C 5.375 -31.070312 6.242188 -30.648438 7.046875 -30.078125 C 7.859375 -29.515625 8.515625 -28.78125 9.015625 -27.875 C 9.523438 -26.96875 9.78125 -25.804688 9.78125 -24.390625 Z M 9.78125 -24.390625 "/></g></g></g><g fill="#a6a6a6" fill-opacity="1"><g transform="translate(343.78715, 150.207413)"><g><path d="M -9.78125 24.390625 L -9.78125 5.4375 C -9.78125 1.613281 -10.769531 -1.171875 -12.75 -2.921875 C -14.726562 -4.671875 -17.234375 -5.546875 -20.265625 -5.546875 C -22.410156 -5.546875 -23.96875 -5.507812 -24.9375 -5.4375 C -25.914062 -5.375 -26.40625 -5.109375 -26.40625 -4.640625 C -26.40625 -4.234375 -26.066406 -3.992188 -25.390625 -3.921875 C -24.722656 -3.859375 -23.71875 -3.828125 -22.375 -3.828125 C -21.363281 -3.828125 -20.4375 -3.675781 -19.59375 -3.375 C -18.757812 -3.070312 -18.003906 -2.535156 -17.328125 -1.765625 C -16.660156 -0.992188 -16.140625 0.0625 -15.765625 1.40625 C -15.398438 2.75 -15.21875 4.460938 -15.21875 6.546875 L -15.21875 24.6875 C -15.21875 26.101562 -14.945312 27.25 -14.40625 28.125 C -13.875 29 -13.203125 29.6875 -12.390625 30.1875 C -11.585938 30.6875 -10.664062 31.054688 -9.625 31.296875 C -8.582031 31.535156 -7.554688 31.753906 -6.546875 31.953125 C -7.554688 32.148438 -8.582031 32.347656 -9.625 32.546875 C -10.664062 32.753906 -11.585938 33.109375 -12.390625 33.609375 C -13.203125 34.117188 -13.875 34.8125 -14.40625 35.6875 C -14.945312 36.5625 -15.21875 37.769531 -15.21875 39.3125 L -15.21875 59.46875 C -15.21875 61.488281 -15.398438 63.171875 -15.765625 64.515625 C -16.140625 65.859375 -16.660156 66.914062 -17.328125 67.6875 C -18.003906 68.457031 -18.757812 68.992188 -19.59375 69.296875 C -20.4375 69.597656 -21.363281 69.75 -22.375 69.75 C -23.71875 69.75 -24.722656 69.78125 -25.390625 69.84375 C -26.066406 69.914062 -26.40625 70.15625 -26.40625 70.5625 C -26.40625 71.03125 -25.914062 71.296875 -24.9375 71.359375 C -23.96875 71.429688 -22.410156 71.46875 -20.265625 71.46875 C -17.234375 71.46875 -14.726562 70.609375 -12.75 68.890625 C -10.769531 67.179688 -9.78125 64.410156 -9.78125 60.578125 L -9.78125 39.515625 C -9.78125 38.171875 -9.507812 37.0625 -8.96875 36.1875 C -8.4375 35.3125 -7.78125 34.585938 -7 34.015625 C -6.226562 33.441406 -5.375 32.988281 -4.4375 32.65625 C -3.5 32.320312 -2.625 32.085938 -1.8125 31.953125 C -2.625 31.816406 -3.5 31.613281 -4.4375 31.34375 C -5.375 31.070312 -6.242188 30.648438 -7.046875 30.078125 C -7.859375 29.515625 -8.515625 28.78125 -9.015625 27.875 C -9.523438 26.96875 -9.78125 25.804688 -9.78125 24.390625 Z M -9.78125 24.390625 "/></g></g></g></svg>